<?xml version="1.0" encoding="utf-8"?>
<!-- Generator: Adobe Illustrator 16.0.0, SVG Export Plug-In . SVG Version: 6.00 Build 0)  -->
<!DOCTYPE svg PUBLIC "-//W3C//DTD SVG 1.1//EN" "http://www.w3.org/Graphics/SVG/1.1/DTD/svg11.dtd">
<svg version="1.1" id="Layer_1" xmlns:sketch="http://www.bohemiancoding.com/sketch/ns"
	 xmlns="http://www.w3.org/2000/svg" xmlns:xlink="http://www.w3.org/1999/xlink" x="0px" y="0px" width="16px" height="16px"
	 viewBox="0 0 16 16" enable-background="new 0 0 16 16" xml:space="preserve">
<title></title>
<g id="Icons_with_numbers">
	<g id="Group" transform="translate(-240.000000, -480.000000)">
		<path id="Rectangle_153_copy" d="M243.996,480h8.008c2.207,0,3.996,1.789,3.996,3.996v8.008c0,2.207-1.789,3.996-3.996,3.996
			h-8.008c-2.207,0-3.996-1.789-3.996-3.996v-8.008C240,481.789,241.789,480,243.996,480z M244.003,481
			c-1.659,0-3.003,1.342-3.003,3.003v7.993c0,1.659,1.342,3.004,3.003,3.004h7.993c1.659,0,3.004-1.342,3.004-3.004v-7.993
			c0-1.659-1.342-3.003-3.004-3.003H244.003z"/>
	</g>
</g>
<path d="M264,264H72c0,0-254.281,0-256-256c0-22.281,3.469-43.469,8.312-64h137.405c-11,18.875-17.719,40.562-17.719,64
	c0,128,128,128,128,128h192c0,0,128,0,128-128S264-120,264-120s-0.125-64-64-128h64c0,0,256,0,256,256S264,264,264,264z M191.688,72
	H54.25C65.25,53.125,72,31.438,72,8C72-120-56-120-56-120h-192c0,0-128,0-128,128s128,128,128,128s-3.906,64.875,65.719,128H-248
	c0,0-256,0-256-256s256-256,256-256h192c0,0,256,0,256,256C200,30.281,196.5,51.5,191.688,72z"/>
<path d="M264,264H72c0,0-254.281,0-256-256c0-22.281,3.469-43.469,8.312-64h137.405c-11,18.875-17.719,40.562-17.719,64
	c0,128,128,128,128,128h192c0,0,128,0,128-128S264-120,264-120s-0.125-64-64-128h64c0,0,256,0,256,256S264,264,264,264z M191.688,72
	H54.25C65.25,53.125,72,31.438,72,8C72-120-56-120-56-120h-192c0,0-128,0-128,128s128,128,128,128s-3.906,64.875,65.719,128H-248
	c0,0-256,0-256-256s256-256,256-256h192c0,0,256,0,256,256C200,30.281,196.5,51.5,191.688,72z"/>
<path d="M13.093,8l-1.909,1.91c0,0-2.529,2.529-5.093-0.001C5.869,9.688,5.692,9.442,5.536,9.19l1.367-1.367
	c0.079,0.298,0.227,0.58,0.46,0.813C8.637,9.91,9.91,8.636,9.91,8.636l1.909-1.909c0,0,1.273-1.273-0.001-2.546
	c-1.271-1.273-2.545,0-2.545,0S8.635,3.546,7.363,3.544L8,2.907c0,0,2.547-2.546,5.093,0C15.639,5.454,13.093,8,13.093,8z
	 M10.463,6.81L9.096,8.176C9.018,7.879,8.87,7.597,8.637,7.362C7.363,6.089,6.09,7.363,6.09,7.363l-1.909,1.91
	c0,0-1.273,1.272,0,2.546c1.273,1.272,2.546,0,2.546,0s0.606,0.683,1.927,0.62L8,13.092c0,0-2.546,2.547-5.092,0
	c-2.546-2.546,0-5.092,0-5.092l1.909-1.909c0,0,2.546-2.546,5.093,0C10.131,6.312,10.309,6.558,10.463,6.81z"/>
</svg>
